<svg preserveAspectRatio="none" overflow="visible" style="display: block;" width="102.683" height="87.1845" viewBox="0 0 102.683 87.1845" fill="none" xmlns="http://www.w3.org/2000/svg">
<g id="Group 29">
<path id="Vector" d="M51.4352 87.0702C79.7388 87.1333 102.642 67.7186 102.59 43.7063C102.538 19.694 79.5518 0.177126 51.2482 0.114084C22.9446 0.0510416 0.0418255 19.4657 0.0934643 43.478C0.145103 67.4903 23.1316 87.0072 51.4352 87.0702Z" fill="url(#paint0_linear_0_20)"/>
<path id="Vector_2" d="M55.8703 60.0383C59.1461 59.5974 61.2449 55.1599 60.5581 50.127C59.8713 45.0941 56.6591 41.3716 53.3833 41.8126C50.1075 42.2535 48.0087 46.691 48.6955 51.7239C49.3823 56.7568 52.5945 60.4793 55.8703 60.0383Z" fill="black"/>
<path id="Vector_3" d="M26.7386 64.0526C30.0144 63.6116 32.1132 59.1742 31.4264 54.1413C30.7396 49.1083 27.5274 45.3858 24.2516 45.8268C20.9758 46.2677 18.877 50.7052 19.5638 55.7381C20.2506 60.771 23.4628 64.4935 26.7386 64.0526Z" fill="black"/>
</g>
<defs>
<linearGradient id="paint0_linear_0_20" x1="25.8559" y1="10.4642" x2="51.4929" y2="87.0509" gradientUnits="userSpaceOnUse">
<stop stop-color="#FFEBF3"/>
<stop offset="1" stop-color="#F297C1"/>
</linearGradient>
</defs>
</svg>
