<svg preserveAspectRatio="none" overflow="visible" style="display: block;" width="19.8133" height="14.3096" viewBox="0 0 19.8133 14.3096" fill="none" xmlns="http://www.w3.org/2000/svg">
<g id="eye_tracking">
<path id="eye_tracking_2" d="M9.90623 0.0126953C12.105 0.0126953 14.0982 0.662878 15.8847 1.96387C19.318 4.46411 19.318 9.84546 15.8847 12.3457C14.0982 13.6467 12.105 14.2969 9.90623 14.2969C7.70757 14.2968 5.71516 13.6466 3.92869 12.3457C0.49528 9.84547 0.49528 4.4641 3.92869 1.96387C5.71516 0.662956 7.70757 0.0127693 9.90623 0.0126953ZM9.90623 2.18945C8.2897 2.18952 6.81078 2.63002 5.46971 3.51172C2.9044 5.1985 2.9044 9.11107 5.46971 10.7979C6.81078 11.6796 8.2897 12.12 9.90623 12.1201C11.523 12.1201 13.0025 11.6797 14.3437 10.7979C16.909 9.11107 16.909 5.1985 14.3437 3.51172C13.0025 2.62988 11.523 2.18945 9.90623 2.18945ZM9.90623 3.31445C10.967 3.31445 11.8722 3.68963 12.6221 4.43945C13.3717 5.18915 13.7469 6.0938 13.7471 7.1543C13.7471 8.215 13.3718 9.1203 12.6221 9.87012C11.8722 10.6199 10.967 10.9951 9.90623 10.9951C8.84569 10.995 7.94111 10.6198 7.19139 9.87012C6.44156 9.12029 6.06639 8.21503 6.06639 7.1543C6.0665 6.09378 6.44168 5.18916 7.19139 4.43945C7.94111 3.68975 8.84569 3.31454 9.90623 3.31445ZM9.90623 5.49121C9.4445 5.4913 9.05182 5.65327 8.7285 5.97656C8.40519 6.29987 8.24326 6.69259 8.24314 7.1543C8.24314 7.61621 8.40508 8.00959 8.7285 8.33301C9.05182 8.6563 9.4445 8.81827 9.90623 8.81836C10.3681 8.81836 10.7615 8.65643 11.0849 8.33301C11.4083 8.0096 11.5703 7.61619 11.5703 7.1543C11.5702 6.69262 11.4082 6.29986 11.0849 5.97656C10.7615 5.65314 10.3681 5.49121 9.90623 5.49121Z" fill="#748DFD" stroke="#748DFD" stroke-width="0.025"/>
</g>
</svg>
