<svg preserveAspectRatio="none" overflow="visible" style="display: block;" width="88" height="16.7819" viewBox="0 0 88 16.7819" fill="none" xmlns="http://www.w3.org/2000/svg">
<g id="Group 268">
<path id="Vector" d="M8.45346 0.229382C3.66531 0.168307 -0.0597736 3.80662 0.000726569 8.64461C0.043941 12.1739 2.2522 15.2276 5.56242 16.3444C6.69464 16.7283 7.8355 16.8461 9.06279 16.7501C13.4318 16.3924 16.6296 12.7017 16.5518 8.35669C16.4697 3.83279 12.9564 0.281732 8.45346 0.229382ZM5.32474 9.05905C5.32474 9.54329 4.92717 9.81376 4.5512 9.81376C4.17524 9.81376 3.79927 9.5302 3.79927 9.08522V7.91172C3.79927 7.46674 4.18388 7.18754 4.5512 7.18754C4.96606 7.18754 5.33338 7.50164 5.32906 7.97279V9.05905H5.32474ZM6.41375 11.2098C6.03778 11.2098 5.64021 10.9 5.64021 10.4463V6.54626C5.64021 6.0882 6.03778 5.78282 6.41375 5.78282C6.78971 5.78282 7.17864 6.09256 7.17864 6.5419V10.4158C7.17864 10.9044 6.81564 11.2098 6.41375 11.2098ZM8.28061 13.0856C7.90032 13.09 7.50275 12.789 7.50275 12.3266V4.66167C7.50275 4.20797 7.90464 3.89823 8.28061 3.90696C8.66954 3.91568 9.03686 4.21669 9.03686 4.67039V12.2873C9.03686 12.7846 8.6825 13.0813 8.28061 13.09V13.0856ZM10.1518 11.2098C9.7715 11.2228 9.37393 10.9218 9.37393 10.455V6.53317C9.37393 6.10129 9.73693 5.80027 10.087 5.78282C10.5061 5.76101 10.8908 6.06639 10.8951 6.52881V10.3416C10.9037 10.852 10.6099 11.1879 10.1561 11.2054L10.1518 11.2098ZM12.023 9.81376C11.647 9.82685 11.2408 9.54765 11.2365 9.10267L11.2278 7.96407C11.2235 7.51909 11.5692 7.20063 11.9495 7.18318C12.3817 7.16137 12.7533 7.49292 12.7533 7.96407V8.99361C12.7576 9.47349 12.4249 9.79631 12.023 9.81376Z" fill="#C0CEFF"/>
<path id="Vector_2" d="M44.3921 4.57197C43.6984 3.32619 42.2216 3.02301 40.8511 3.33721C39.3966 3.67346 38.731 5.11769 38.7254 6.57845L38.703 15.128C38.703 16.0486 37.8639 16.5723 37.008 16.5723C36.0514 16.5723 35.2962 15.9494 35.2962 14.9737V6.50679C35.3074 3.71756 36.8961 1.30317 39.6148 0.514912C41.0804 0.0904642 42.6076 0.0904642 44.062 0.536961C46.7024 1.34727 48.3023 3.72307 48.2967 6.42962L48.2799 15.1887C48.2799 16.0541 47.4296 16.5557 46.6185 16.5723C45.8074 16.5888 44.9235 16.0927 44.9179 15.2052L44.8788 6.5123C44.8788 5.81224 44.7165 5.16179 44.3865 4.57197H44.3921Z" fill="#C0CEFF"/>
<path id="Vector_3" d="M73.1853 15.1614C70.545 17.6144 65.7957 17.2781 63.7035 14.1196C62.2994 11.9918 62.3665 9.23569 63.8042 7.15203C65.6055 4.59984 69.2024 3.86119 71.7477 5.70781L71.7589 1.45231C71.7589 0.52073 72.5532 -0.0415252 73.4538 0.0025732C74.3545 0.0466716 75.0313 0.619951 75.0313 1.52948V10.9169C75.0258 12.5376 74.3713 14.059 73.1853 15.1559V15.1614ZM71.77 10.8894C71.8204 8.96558 70.6401 7.57097 68.7325 7.61507C67.6193 7.64263 66.6963 8.26001 66.2711 9.27427C65.8236 10.3437 65.8628 11.595 66.5005 12.5927C67.2109 13.7062 68.5815 14.092 69.8345 13.6841C70.9869 13.3038 71.7365 12.1958 71.77 10.8894Z" fill="#C0CEFF"/>
<path id="Vector_4" d="M85.0378 13.0499C85.6028 12.5868 86.33 12.6254 86.867 13.0774C87.253 13.4027 87.4376 13.8381 87.4376 14.3232C87.4376 14.8083 87.1691 15.2162 86.7328 15.5359C84.8644 16.903 81.9555 17.129 79.8242 16.2746C77.6929 15.4202 76.3839 13.5405 76.1937 11.3025C75.9587 8.50774 77.5698 5.8894 80.2997 4.99089C81.9443 4.45069 83.7344 4.65464 85.2392 5.50905C87.1076 6.56741 88.1816 8.61248 87.9747 10.7072C87.8796 11.7104 87.0572 12.1404 86.1286 12.1404H79.7123C80.5514 14.1358 83.3764 14.3342 85.0266 13.0554L85.0378 13.0499ZM84.6574 9.296C84.2155 8.14393 83.1638 7.60372 82.1065 7.61475C81.0493 7.62577 80.0536 8.28725 79.6899 9.32356L84.6574 9.296Z" fill="#C0CEFF"/>
<path id="Vector_5" d="M60.8828 14.2342C59.6745 15.9706 57.6942 16.8085 55.6189 16.7699C53.5435 16.7313 51.6583 15.8107 50.5395 14.0909C49.2081 12.0458 49.2193 9.36685 50.5731 7.33832C51.7254 5.60745 53.6777 4.6869 55.7699 4.6869C57.862 4.6869 59.915 5.6736 61.045 7.49266C62.3205 9.54875 62.2869 12.2112 60.8828 14.2342ZM55.8146 13.8483C57.0397 13.8263 58.0243 13.1924 58.4382 12.0899C58.7515 11.2576 58.7571 10.337 58.4774 9.48812C58.097 8.33604 57.0677 7.65252 55.8482 7.61393C54.556 7.57535 53.4148 8.29746 53.0288 9.5267C52.7547 10.3976 52.7715 11.3292 53.1127 12.1671C53.5603 13.2696 54.584 13.8704 55.8146 13.8539V13.8483Z" fill="#C0CEFF"/>
<path id="Vector_6" d="M24.7346 7.99529C23.9906 7.4606 22.8774 7.47714 22.1446 7.96773C21.5628 8.35911 21.3111 9.07571 21.3055 9.75372L21.2831 15.051C21.2831 15.9881 20.5559 16.578 19.6329 16.5724C18.7098 16.5669 17.9994 15.9826 18.005 15.051V9.86396C18.005 7.7748 19.0455 5.8951 21.0425 5.12338C22.497 4.56113 24.1192 4.54459 25.6017 5.05172C27.6491 5.75178 28.8126 7.67007 28.8126 9.78679V15.051C28.8182 15.9936 28.0686 16.5835 27.1568 16.5724C26.245 16.5614 25.5401 15.9771 25.5345 15.051L25.501 9.64347C25.501 9.03712 25.2604 8.38116 24.729 8.00081L24.7346 7.99529Z" fill="#C0CEFF"/>
<path id="Vector_7" d="M31.6542 2.95151C32.8177 2.75307 33.8358 3.51377 34.026 4.56662C34.2162 5.61947 33.4722 6.7109 32.359 6.90383C31.2458 7.09677 30.2445 6.3967 30.0151 5.33283C29.7858 4.26895 30.4738 3.16098 31.6542 2.95702V2.95151Z" fill="#C0CEFF"/>
<path id="Vector_8" d="M31.8084 10.3884C32.9663 10.0962 34.0516 10.7853 34.3145 11.8657C34.5774 12.9461 33.9061 13.9989 32.8209 14.269C31.7356 14.5391 30.6392 13.9107 30.3427 12.8303C30.063 11.805 30.656 10.675 31.8028 10.3884H31.8084Z" fill="#C0CEFF"/>
</g>
</svg>
